<?xml version="1.0" encoding="UTF-8" standalone="no"?>
<!DOCTYPE svg PUBLIC "-//W3C//DTD SVG 1.1//EN"
 "http://www.w3.org/Graphics/SVG/1.1/DTD/svg11.dtd">
<!-- Generated by graphviz version 8.1.0 (20230707.0739)
 -->
<!-- Title: G Pages: 1 -->
<svg width="473pt" height="640pt"
 viewBox="0.00 0.00 532.62 720.00" xmlns="http://www.w3.org/2000/svg" xmlns:xlink="http://www.w3.org/1999/xlink">
<g id="graph0" class="graph" transform="scale(0.472848 0.472848) rotate(0) translate(4 1349.5)">
<title>G</title>
<polygon fill="white" stroke="none" points="-4,4 -4,-1349.5 997.25,-1349.5 997.25,4 -4,4"/>
<text text-anchor="middle" x="496.62" y="-1307.3" font-family="Arial" font-size="36.00" fill="blue">Reaction Path Analysis</text>
<!-- CH2CH2(S) -->
<g id="node1" class="node">
<title>CH2CH2(S)</title>
<g id="a_node1"><a xlink:href="Species\12.svg" xlink:title="CH2CH2(S)">
<polygon fill="dodgerblue" stroke="none" points="332.75,-955.75 141.25,-955.75 141.25,-908 332.75,-908 332.75,-955.75"/>
<text text-anchor="middle" x="237" y="-918.5" font-family="Times,serif" font-size="35.00">CH2CH2(S)</text>
</a>
</g>
</g>
<!-- CH2CH2 -->
<g id="node2" class="node">
<title>CH2CH2</title>
<g id="a_node2"><a xlink:href="Species\0.svg" xlink:title="CH2CH2">
<polygon fill="none" stroke="none" points="148,-842.25 0,-842.25 0,-794.5 148,-794.5 148,-842.25"/>
<text text-anchor="middle" x="74" y="-805" font-family="Times,serif" font-size="35.00">CH2CH2</text>
</a>
</g>
</g>
<!-- CH2CH2(S)&#45;&gt;CH2CH2 -->
<g id="edge1" class="edge">
<title>CH2CH2(S)&#45;&gt;CH2CH2</title>
<path fill="none" stroke="green" stroke-width="5" d="M141.29,-920.19C123.28,-914.28 105.98,-905.37 92.75,-892 82.49,-881.63 77.62,-866.42 75.38,-852.6"/>
<polygon fill="green" stroke="green" stroke-width="5" points="79.64,-857.34 74.11,-847.93 70.95,-858.38 79.64,-857.34"/>
<text text-anchor="middle" x="131.62" y="-863.5" font-family="Times,serif" font-size="30.00"> &#160;&#160;95%</text>
</g>
<!-- H(S) -->
<g id="node5" class="node">
<title>H(S)</title>
<g id="a_node5"><a xlink:href="Species\9.svg" xlink:title="H(S)">
<polygon fill="springgreen" stroke="none" points="745.5,-842.25 660.5,-842.25 660.5,-794.5 745.5,-794.5 745.5,-842.25"/>
<text text-anchor="middle" x="703" y="-805" font-family="Times,serif" font-size="35.00">H(S)</text>
</a>
</g>
</g>
<!-- CH2CH2(S)&#45;&gt;H(S) -->
<g id="edge18" class="edge">
<title>CH2CH2(S)&#45;&gt;H(S)</title>
<path fill="none" stroke="green" d="M252.02,-908.09C264.65,-891.06 284.38,-868.94 307.75,-858.25 362.26,-833.32 517.49,-849.39 577,-842.25 601.09,-839.36 627.54,-834.77 649.96,-830.47"/>
<polygon fill="green" stroke="green" points="650.47,-833.74 659.62,-828.38 649.13,-826.87 650.47,-833.74"/>
<text text-anchor="middle" x="339.12" y="-863.5" font-family="Times,serif" font-size="30.00"> &#160;&#160;1%</text>
</g>
<!-- CHCH2(S) -->
<g id="node16" class="node">
<title>CHCH2(S)</title>
<g id="a_node16"><a xlink:href="Species\15.svg" xlink:title="CHCH2(S)">
<polygon fill="dodgerblue" stroke="none" points="652.12,-728.75 477.88,-728.75 477.88,-681 652.12,-681 652.12,-728.75"/>
<text text-anchor="middle" x="565" y="-691.5" font-family="Times,serif" font-size="35.00">CHCH2(S)</text>
</a>
</g>
</g>
<!-- CH2CH2(S)&#45;&gt;CHCH2(S) -->
<g id="edge17" class="edge">
<title>CH2CH2(S)&#45;&gt;CHCH2(S)</title>
<path fill="none" stroke="green" d="M240.22,-908.25C247.48,-866.52 269.33,-778.03 328,-737.75 350.5,-722.3 412.41,-714.31 467.31,-710.2"/>
<polygon fill="green" stroke="green" points="467.45,-713.62 477.18,-709.42 466.96,-706.64 467.45,-713.62"/>
<text text-anchor="middle" x="310.12" y="-806.75" font-family="Times,serif" font-size="30.00"> &#160;&#160;1%</text>
</g>
<!-- CH3CH3 -->
<g id="node3" class="node">
<title>CH3CH3</title>
<g id="a_node3"><a xlink:href="Species\1.svg" xlink:title="CH3CH3">
<polygon fill="none" stroke="none" points="865,-1296.25 717,-1296.25 717,-1248.5 865,-1248.5 865,-1296.25"/>
<text text-anchor="middle" x="791" y="-1259" font-family="Times,serif" font-size="35.00">CH3CH3</text>
</a>
</g>
</g>
<!-- CH2CH3(S) -->
<g id="node4" class="node">
<title>CH2CH3(S)</title>
<g id="a_node4"><a xlink:href="Species\7.svg" xlink:title="CH2CH3(S)">
<polygon fill="dodgerblue" stroke="none" points="798.75,-1182.75 607.25,-1182.75 607.25,-1135 798.75,-1135 798.75,-1182.75"/>
<text text-anchor="middle" x="703" y="-1145.5" font-family="Times,serif" font-size="35.00">CH2CH3(S)</text>
</a>
</g>
</g>
<!-- CH3CH3&#45;&gt;CH2CH3(S) -->
<g id="edge2" class="edge">
<title>CH3CH3&#45;&gt;CH2CH3(S)</title>
<path fill="none" stroke="black" stroke-width="6" d="M772.98,-1248.54C759.93,-1232.01 742.13,-1209.45 727.75,-1191.23"/>
<polygon fill="black" stroke="black" stroke-width="6" points="734.31,-1192.27 724,-1187.68 726.07,-1198.78 734.31,-1192.27"/>
<text text-anchor="middle" x="807.12" y="-1204" font-family="Times,serif" font-size="30.00"> &#160;&#160;100%</text>
</g>
<!-- CH3CH3&#45;&gt;H(S) -->
<g id="edge3" class="edge">
<title>CH3CH3&#45;&gt;H(S)</title>
<path fill="none" stroke="black" stroke-width="6" d="M839.41,-1248.65C845.97,-1244.01 852.11,-1238.64 857,-1232.5 878.09,-1206.02 880,-1193.73 880,-1159.88 880,-1159.88 880,-1159.88 880,-930.88 880,-871.58 808.02,-842.57 755.86,-829.33"/>
<polygon fill="black" stroke="black" stroke-width="6" points="762.35,-825.05 751.4,-827.81 759.89,-835.25 762.35,-825.05"/>
<text text-anchor="middle" x="926.12" y="-1033.75" font-family="Times,serif" font-size="30.00"> &#160;&#160;100%</text>
</g>
<!-- CH2CH3(S)&#45;&gt;CH2CH2(S) -->
<g id="edge7" class="edge">
<title>CH2CH3(S)&#45;&gt;CH2CH2(S)</title>
<path fill="none" stroke="black" stroke-width="5" d="M607.54,-1137.61C549.75,-1123.17 475.7,-1100.7 414.75,-1069.25 358.83,-1040.39 302.59,-993.54 268.78,-962.97"/>
<polygon fill="black" stroke="black" stroke-width="5" points="275.01,-963.08 264.68,-959.56 269.11,-969.54 275.01,-963.08"/>
<text text-anchor="middle" x="453.62" y="-1033.75" font-family="Times,serif" font-size="30.00"> &#160;&#160;96%</text>
</g>
<!-- CH2CH3(S)&#45;&gt;H(S) -->
<g id="edge8" class="edge">
<title>CH2CH3(S)&#45;&gt;H(S)</title>
<path fill="none" stroke="black" stroke-width="5" d="M703,-1135.14C703,-1076.73 703,-921.18 703,-852.62"/>
<polygon fill="black" stroke="black" stroke-width="5" points="707.38,-858.01 703,-848.01 698.63,-858.01 707.38,-858.01"/>
<text text-anchor="middle" x="741.62" y="-977" font-family="Times,serif" font-size="30.00"> &#160;&#160;96%</text>
</g>
<!-- CH2CH3(S)&#45;&gt;H(S) -->
<g id="edge10" class="edge">
<title>CH2CH3(S)&#45;&gt;H(S)</title>
<path fill="none" stroke="black" d="M718.98,-1135.23C738.11,-1106.59 769.06,-1055.05 781,-1005.5 794.7,-948.67 757.4,-886.85 729.77,-850.69"/>
<polygon fill="black" stroke="black" points="731.92,-848.76 722.99,-843.07 726.42,-853.09 731.92,-848.76"/>
<text text-anchor="middle" x="815.12" y="-977" font-family="Times,serif" font-size="30.00"> &#160;&#160;3%</text>
</g>
<!-- CHCH3(S) -->
<g id="node11" class="node">
<title>CHCH3(S)</title>
<g id="a_node11"><a xlink:href="Species\11.svg" xlink:title="CHCH3(S)">
<polygon fill="dodgerblue" stroke="none" points="675.12,-1069.25 500.88,-1069.25 500.88,-1021.5 675.12,-1021.5 675.12,-1069.25"/>
<text text-anchor="middle" x="588" y="-1032" font-family="Times,serif" font-size="35.00">CHCH3(S)</text>
</a>
</g>
</g>
<!-- CH2CH3(S)&#45;&gt;CHCH3(S) -->
<g id="edge9" class="edge">
<title>CH2CH3(S)&#45;&gt;CHCH3(S)</title>
<path fill="none" stroke="black" d="M648.15,-1135.15C640.43,-1130.52 633.01,-1125.14 626.75,-1119 615.37,-1107.83 606.55,-1092.61 600.22,-1078.98"/>
<polygon fill="black" stroke="black" points="603.06,-1077.74 595.86,-1069.96 596.64,-1080.53 603.06,-1077.74"/>
<text text-anchor="middle" x="658.12" y="-1090.5" font-family="Times,serif" font-size="30.00"> &#160;&#160;3%</text>
</g>
<!-- CH4(S) -->
<g id="node6" class="node">
<title>CH4(S)</title>
<g id="a_node6"><a xlink:href="Species\21.svg" xlink:title="CH4(S)">
<polygon fill="dodgerblue" stroke="none" points="947.75,-161.25 822.25,-161.25 822.25,-113.5 947.75,-113.5 947.75,-161.25"/>
<text text-anchor="middle" x="885" y="-124" font-family="Times,serif" font-size="35.00">CH4(S)</text>
</a>
</g>
</g>
<!-- H(S)&#45;&gt;CH4(S) -->
<g id="edge31" class="edge">
<title>H(S)&#45;&gt;CH4(S)</title>
<path fill="none" stroke="black" d="M745.35,-815.26C811.29,-809.44 931,-787.61 931,-705.88 931,-705.88 931,-705.88 931,-249.88 931,-217 930.99,-207 917,-177.25 915.83,-174.76 914.46,-172.29 912.96,-169.88"/>
<polygon fill="black" stroke="black" points="915.29,-168.1 906.68,-161.93 909.56,-172.12 915.29,-168.1"/>
<text text-anchor="middle" x="962.12" y="-466.25" font-family="Times,serif" font-size="30.00"> &#160;&#160;5%</text>
</g>
<!-- H2 -->
<g id="node10" class="node">
<title>H2</title>
<g id="a_node10"><a xlink:href="Species\4.svg" xlink:title="H2">
<polygon fill="none" stroke="none" points="815.38,-728.75 756.62,-728.75 756.62,-681 815.38,-681 815.38,-728.75"/>
<text text-anchor="middle" x="786" y="-691.5" font-family="Times,serif" font-size="35.00">H2</text>
</a>
</g>
</g>
<!-- H(S)&#45;&gt;H2 -->
<g id="edge6" class="edge">
<title>H(S)&#45;&gt;H2</title>
<path fill="none" stroke="green" stroke-width="5" d="M731.69,-794.85C734.69,-791.88 737.53,-788.73 740,-785.5 752.65,-768.93 751.29,-760.08 763.37,-737.77"/>
<polygon fill="green" stroke="green" stroke-width="5" points="764.5,-744.36 765.71,-733.51 756.92,-739.98 764.5,-744.36"/>
<text text-anchor="middle" x="801.62" y="-750" font-family="Times,serif" font-size="30.00"> &#160;&#160;95%</text>
</g>
<!-- CH2(S) -->
<g id="node12" class="node">
<title>CH2(S)</title>
<g id="a_node12"><a xlink:href="Species\10.svg" xlink:title="CH2(S)">
<polygon fill="dodgerblue" stroke="none" points="791.75,-388.25 666.25,-388.25 666.25,-340.5 791.75,-340.5 791.75,-388.25"/>
<text text-anchor="middle" x="729" y="-351" font-family="Times,serif" font-size="35.00">CH2(S)</text>
</a>
</g>
</g>
<!-- H(S)&#45;&gt;CH2(S) -->
<g id="edge14" class="edge">
<title>H(S)&#45;&gt;CH2(S)</title>
<path fill="none" stroke="green" d="M712.17,-794.56C713.21,-791.54 714.19,-788.47 715,-785.5 724.48,-750.84 729,-741.81 729,-705.88 729,-705.88 729,-705.88 729,-476.88 729,-450.67 729,-420.99 729,-398.85"/>
<polygon fill="green" stroke="green" points="732.5,-399.01 729,-389.01 725.5,-399.01 732.5,-399.01"/>
<text text-anchor="middle" x="760.12" y="-579.75" font-family="Times,serif" font-size="30.00"> &#160;&#160;3%</text>
</g>
<!-- CH3(S) -->
<g id="node13" class="node">
<title>CH3(S)</title>
<g id="a_node13"><a xlink:href="Species\8.svg" xlink:title="CH3(S)">
<polygon fill="dodgerblue" stroke="none" points="859.75,-274.75 734.25,-274.75 734.25,-227 859.75,-227 859.75,-274.75"/>
<text text-anchor="middle" x="797" y="-237.5" font-family="Times,serif" font-size="35.00">CH3(S)</text>
</a>
</g>
</g>
<!-- H(S)&#45;&gt;CH3(S) -->
<g id="edge12" class="edge">
<title>H(S)&#45;&gt;CH3(S)</title>
<path fill="none" stroke="black" d="M745.45,-812.64C780.73,-807.8 827.16,-799.07 840,-785.5 864.71,-759.41 854,-741.81 854,-705.88 854,-705.88 854,-705.88 854,-363.38 854,-330.5 856.14,-319.39 840,-290.75 838.37,-287.86 836.45,-285.07 834.34,-282.41"/>
<polygon fill="black" stroke="black" points="837.37,-280.42 828.08,-275.33 832.16,-285.11 837.37,-280.42"/>
<text text-anchor="middle" x="885.12" y="-523" font-family="Times,serif" font-size="30.00"> &#160;&#160;3%</text>
</g>
<!-- CH(S) -->
<g id="node14" class="node">
<title>CH(S)</title>
<g id="a_node14"><a xlink:href="Species\13.svg" xlink:title="CH(S)">
<polygon fill="red" stroke="none" points="503.12,-501.75 394.88,-501.75 394.88,-454 503.12,-454 503.12,-501.75"/>
<text text-anchor="middle" x="449" y="-464.5" font-family="Times,serif" font-size="35.00">CH(S)</text>
</a>
</g>
</g>
<!-- H(S)&#45;&gt;CH(S) -->
<g id="edge20" class="edge">
<title>H(S)&#45;&gt;CH(S)</title>
<path fill="none" stroke="green" d="M660.58,-808.65C636.22,-803.89 604.99,-798.23 577,-794.5 565.39,-792.95 480.24,-793.82 472,-785.5 434.67,-747.77 441.46,-583.63 446.35,-512.24"/>
<polygon fill="green" stroke="green" points="449.88,-512.84 447.11,-502.62 442.9,-512.34 449.88,-512.84"/>
<text text-anchor="middle" x="475.12" y="-636.5" font-family="Times,serif" font-size="30.00"> &#160;&#160;2%</text>
</g>
<!-- H(S)&#45;&gt;CHCH2(S) -->
<g id="edge26" class="edge">
<title>H(S)&#45;&gt;CHCH2(S)</title>
<path fill="none" stroke="green" d="M660.62,-812.98C625.48,-808.37 579.45,-799.77 567.75,-785.5 557.44,-772.94 556.02,-755.13 557.49,-739.55"/>
<polygon fill="green" stroke="green" points="561.09,-740.08 558.99,-729.7 554.16,-739.12 561.09,-740.08"/>
<text text-anchor="middle" x="599.12" y="-750" font-family="Times,serif" font-size="30.00"> &#160;&#160;1%</text>
</g>
<!-- CH4 -->
<g id="node7" class="node">
<title>CH4</title>
<g id="a_node7"><a xlink:href="Species\2.svg" xlink:title="CH4">
<polygon fill="none" stroke="none" points="926,-47.75 844,-47.75 844,0 926,0 926,-47.75"/>
<text text-anchor="middle" x="885" y="-10.5" font-family="Times,serif" font-size="35.00">CH4</text>
</a>
</g>
</g>
<!-- CH4(S)&#45;&gt;CH4 -->
<g id="edge4" class="edge">
<title>CH4(S)&#45;&gt;CH4</title>
<path fill="none" stroke="green" d="M885,-113.54C885,-97.68 885,-76.29 885,-58.49"/>
<polygon fill="green" stroke="green" points="888.5,-58.68 885,-48.68 881.5,-58.68 888.5,-58.68"/>
<text text-anchor="middle" x="916.12" y="-69" font-family="Times,serif" font-size="30.00"> &#160;&#160;5%</text>
</g>
<!-- CHCH(S) -->
<g id="node8" class="node">
<title>CHCH(S)</title>
<g id="a_node8"><a xlink:href="Species\18.svg" xlink:title="CHCH(S)">
<polygon fill="springgreen" stroke="none" points="643.5,-615.25 486.5,-615.25 486.5,-567.5 643.5,-567.5 643.5,-615.25"/>
<text text-anchor="middle" x="565" y="-578" font-family="Times,serif" font-size="35.00">CHCH(S)</text>
</a>
</g>
</g>
<!-- CHCH -->
<g id="node9" class="node">
<title>CHCH</title>
<g id="a_node9"><a xlink:href="Species\3.svg" xlink:title="CHCH">
<polygon fill="none" stroke="none" points="634.75,-501.75 521.25,-501.75 521.25,-454 634.75,-454 634.75,-501.75"/>
<text text-anchor="middle" x="578" y="-464.5" font-family="Times,serif" font-size="35.00">CHCH</text>
</a>
</g>
</g>
<!-- CHCH(S)&#45;&gt;CHCH -->
<g id="edge5" class="edge">
<title>CHCH(S)&#45;&gt;CHCH</title>
<path fill="none" stroke="green" d="M567.66,-567.54C569.51,-551.68 572.01,-530.29 574.08,-512.49"/>
<polygon fill="green" stroke="green" points="577.66,-513.02 575.34,-502.68 570.71,-512.2 577.66,-513.02"/>
<text text-anchor="middle" x="605.12" y="-523" font-family="Times,serif" font-size="30.00"> &#160;&#160;1%</text>
</g>
<!-- CHCH(S)&#45;&gt;CH(S) -->
<g id="edge29" class="edge">
<title>CHCH(S)&#45;&gt;CH(S)</title>
<path fill="none" stroke="green" d="M524.6,-567.67C517.32,-562.77 510.04,-557.31 503.75,-551.5 490.74,-539.49 478.62,-524.07 469.11,-510.53"/>
<polygon fill="green" stroke="green" points="471.49,-508.81 462.97,-502.52 465.71,-512.76 471.49,-508.81"/>
<text text-anchor="middle" x="535.12" y="-523" font-family="Times,serif" font-size="30.00"> &#160;&#160;0%</text>
</g>
<!-- CHCH3(S)&#45;&gt;H(S) -->
<g id="edge16" class="edge">
<title>CHCH3(S)&#45;&gt;H(S)</title>
<path fill="none" stroke="green" d="M594.42,-1021.68C605.34,-983.06 626.4,-908.64 626.75,-908 638.32,-886.5 655.86,-865.63 671.2,-849.55"/>
<polygon fill="green" stroke="green" points="673.03,-852.66 677.51,-843.06 668.02,-847.77 673.03,-852.66"/>
<text text-anchor="middle" x="658.12" y="-920.25" font-family="Times,serif" font-size="30.00"> &#160;&#160;3%</text>
</g>
<!-- CCH3(S) -->
<g id="node15" class="node">
<title>CCH3(S)</title>
<g id="a_node15"><a xlink:href="Species\14.svg" xlink:title="CCH3(S)">
<polygon fill="lawngreen" stroke="none" points="551.38,-955.75 402.62,-955.75 402.62,-908 551.38,-908 551.38,-955.75"/>
<text text-anchor="middle" x="477" y="-918.5" font-family="Times,serif" font-size="35.00">CCH3(S)</text>
</a>
</g>
</g>
<!-- CHCH3(S)&#45;&gt;CCH3(S) -->
<g id="edge15" class="edge">
<title>CHCH3(S)&#45;&gt;CCH3(S)</title>
<path fill="none" stroke="green" d="M555.62,-1021.63C549.14,-1016.59 542.55,-1011.07 536.75,-1005.5 523.62,-992.88 510.58,-977.46 500.06,-964.09"/>
<polygon fill="green" stroke="green" points="502.41,-962.41 493.53,-956.64 496.88,-966.7 502.41,-962.41"/>
<text text-anchor="middle" x="568.12" y="-977" font-family="Times,serif" font-size="30.00"> &#160;&#160;3%</text>
</g>
<!-- CH2(S)&#45;&gt;CH3(S) -->
<g id="edge11" class="edge">
<title>CH2(S)&#45;&gt;CH3(S)</title>
<path fill="none" stroke="black" d="M742.92,-340.54C752.92,-324.16 766.51,-301.86 777.57,-283.73"/>
<polygon fill="black" stroke="black" points="780.88,-286.04 783.09,-275.68 774.9,-282.39 780.88,-286.04"/>
<text text-anchor="middle" x="805.12" y="-296" font-family="Times,serif" font-size="30.00"> &#160;&#160;3%</text>
</g>
<!-- CH3(S)&#45;&gt;CH4(S) -->
<g id="edge30" class="edge">
<title>CH3(S)&#45;&gt;CH4(S)</title>
<path fill="none" stroke="black" d="M815.02,-227.04C828.07,-210.51 845.87,-187.95 860.25,-169.73"/>
<polygon fill="black" stroke="black" points="863.56,-172.2 867,-162.18 858.06,-167.86 863.56,-172.2"/>
<text text-anchor="middle" x="886.12" y="-182.5" font-family="Times,serif" font-size="30.00"> &#160;&#160;5%</text>
</g>
<!-- CH(S)&#45;&gt;CH2(S) -->
<g id="edge13" class="edge">
<title>CH(S)&#45;&gt;CH2(S)</title>
<path fill="none" stroke="green" d="M502.99,-455.38C548.24,-437.36 613.06,-411.54 661.69,-392.18"/>
<polygon fill="green" stroke="green" points="662.81,-395.1 670.81,-388.15 660.22,-388.6 662.81,-395.1"/>
<text text-anchor="middle" x="662.12" y="-409.5" font-family="Times,serif" font-size="30.00"> &#160;&#160;3%</text>
</g>
<!-- CCH3(S)&#45;&gt;H(S) -->
<g id="edge24" class="edge">
<title>CCH3(S)&#45;&gt;H(S)</title>
<path fill="none" stroke="green" d="M519.49,-908.13C526.73,-903.31 533.88,-897.88 540,-892 553.05,-879.47 548.07,-868.82 562.75,-858.25 588.18,-839.94 621.89,-830.24 649.89,-825.12"/>
<polygon fill="green" stroke="green" points="650.42,-828.41 659.71,-823.31 649.27,-821.51 650.42,-828.41"/>
<text text-anchor="middle" x="594.12" y="-863.5" font-family="Times,serif" font-size="30.00"> &#160;&#160;1%</text>
</g>
<!-- CCH3(S)&#45;&gt;CH3(S) -->
<g id="edge22" class="edge">
<title>CCH3(S)&#45;&gt;CH3(S)</title>
<path fill="none" stroke="black" d="M402.83,-917.58C351.71,-908.1 292.24,-896.3 288,-892 264.9,-868.61 274,-852.25 274,-819.38 274,-819.38 274,-819.38 274,-363.38 274,-272.55 579.49,-255.43 723.51,-252.4"/>
<polygon fill="black" stroke="black" points="723.5,-255.88 733.43,-252.19 723.37,-248.88 723.5,-255.88"/>
<text text-anchor="middle" x="305.12" y="-579.75" font-family="Times,serif" font-size="30.00"> &#160;&#160;1%</text>
</g>
<!-- C(S) -->
<g id="node17" class="node">
<title>C(S)</title>
<g id="a_node17"><a xlink:href="Species\16.svg" xlink:title="C(S)">
<polygon fill="orange" stroke="none" points="419.38,-785.5 336.62,-785.5 336.62,-737.75 419.38,-737.75 419.38,-785.5"/>
<text text-anchor="middle" x="378" y="-748.25" font-family="Times,serif" font-size="35.00">C(S)</text>
</a>
</g>
</g>
<!-- CCH3(S)&#45;&gt;C(S) -->
<g id="edge21" class="edge">
<title>CCH3(S)&#45;&gt;C(S)</title>
<path fill="none" stroke="black" d="M425.84,-908.2C419.38,-903.6 413.41,-898.22 408.75,-892 387.94,-864.24 380.97,-824.48 378.75,-796.38"/>
<polygon fill="black" stroke="black" points="382.19,-796.26 378.09,-786.49 375.21,-796.69 382.19,-796.26"/>
<text text-anchor="middle" x="440.12" y="-863.5" font-family="Times,serif" font-size="30.00"> &#160;&#160;1%</text>
</g>
<!-- CCH2(S) -->
<g id="node18" class="node">
<title>CCH2(S)</title>
<g id="a_node18"><a xlink:href="Species\17.svg" xlink:title="CCH2(S)">
<polygon fill="lawngreen" stroke="none" points="568.38,-842.25 419.62,-842.25 419.62,-794.5 568.38,-794.5 568.38,-842.25"/>
<text text-anchor="middle" x="494" y="-805" font-family="Times,serif" font-size="35.00">CCH2(S)</text>
</a>
</g>
</g>
<!-- CCH3(S)&#45;&gt;CCH2(S) -->
<g id="edge23" class="edge">
<title>CCH3(S)&#45;&gt;CCH2(S)</title>
<path fill="none" stroke="green" d="M475.01,-908.06C474.3,-893.64 474.37,-874.68 477.75,-858.25 478.17,-856.21 478.7,-854.14 479.31,-852.07"/>
<polygon fill="green" stroke="green" points="482.86,-853.52 482.86,-842.93 476.25,-851.21 482.86,-853.52"/>
<text text-anchor="middle" x="509.12" y="-863.5" font-family="Times,serif" font-size="30.00"> &#160;&#160;1%</text>
</g>
<!-- CHCH2(S)&#45;&gt;H(S) -->
<g id="edge28" class="edge">
<title>CHCH2(S)&#45;&gt;H(S)</title>
<path fill="none" stroke="green" d="M619.14,-728.68C623.05,-731.43 626.73,-734.44 630,-737.75 646.53,-754.47 637.16,-767.91 652.75,-785.5 653.29,-786.11 653.84,-786.71 654.41,-787.3"/>
<polygon fill="green" stroke="green" points="651.65,-789.44 661.4,-793.6 656.37,-784.27 651.65,-789.44"/>
<text text-anchor="middle" x="684.12" y="-750" font-family="Times,serif" font-size="30.00"> &#160;&#160;2%</text>
</g>
<!-- CHCH2(S)&#45;&gt;CHCH(S) -->
<g id="edge27" class="edge">
<title>CHCH2(S)&#45;&gt;CHCH(S)</title>
<path fill="none" stroke="green" d="M565,-681.04C565,-665.18 565,-643.79 565,-625.99"/>
<polygon fill="green" stroke="green" points="568.5,-626.18 565,-616.18 561.5,-626.18 568.5,-626.18"/>
<text text-anchor="middle" x="596.12" y="-636.5" font-family="Times,serif" font-size="30.00"> &#160;&#160;2%</text>
</g>
<!-- C(S)&#45;&gt;CH(S) -->
<g id="edge19" class="edge">
<title>C(S)&#45;&gt;CH(S)</title>
<path fill="none" stroke="green" d="M370.89,-737.83C363.84,-711.69 355.33,-667.76 364.75,-631.25 376.45,-585.89 404.86,-539.61 425.46,-510.15"/>
<polygon fill="green" stroke="green" points="428.62,-512.74 431.58,-502.56 422.92,-508.68 428.62,-512.74"/>
<text text-anchor="middle" x="396.12" y="-636.5" font-family="Times,serif" font-size="30.00"> &#160;&#160;2%</text>
</g>
<!-- CCH2(S)&#45;&gt;CHCH2(S) -->
<g id="edge25" class="edge">
<title>CCH2(S)&#45;&gt;CHCH2(S)</title>
<path fill="none" stroke="green" d="M482.9,-794.51C476.37,-777.46 471.39,-754.34 482.75,-737.75 483.04,-737.32 483.34,-736.9 483.65,-736.49"/>
<polygon fill="green" stroke="green" points="485.73,-739.31 489.91,-729.57 480.57,-734.57 485.73,-739.31"/>
<text text-anchor="middle" x="514.12" y="-750" font-family="Times,serif" font-size="30.00"> &#160;&#160;1%</text>
</g>
</g>
</svg>
